<svg xmlns="http://www.w3.org/2000/svg" viewBox="0 0 62 62"><defs><style>.cls-1{fill:#00aef0;}</style></defs><g id="Layer_4" data-name="Layer 4"><path class="cls-1" d="M49.39,25.1l-.06-3.55,0-.19c-1.13-5.16-4.84-6.52-6.7-6.52h0l-23.25,0-.24,0a7.44,7.44,0,0,0-6.52,7.91V25.1A4.77,4.77,0,0,0,8.5,29.81V47.18h45V29.81A4.76,4.76,0,0,0,49.39,25.1ZM47.11,28h1.63a1.79,1.79,0,0,1,1.79,1.79v7H45.32v-7A1.79,1.79,0,0,1,47.11,28ZM42.26,25.5a1.57,1.57,0,0,1-.74,1l-4.27,2.47A1.65,1.65,0,0,1,36,29.1a1.59,1.59,0,0,1-1-.75l-1-1.64a1.6,1.6,0,0,1,.58-2.18L39,22.06a1.58,1.58,0,0,1,.79-.21,1.62,1.62,0,0,1,1.38.8l1,1.64A1.56,1.56,0,0,1,42.26,25.5Zm.31,2.93a4.86,4.86,0,0,0-.22,1.38v1H38.44Zm1.87-2.54A3.78,3.78,0,0,0,44,23.18l-1-1.65a3.82,3.82,0,0,0-5.21-1.39l-4.28,2.47a3.81,3.81,0,0,0-1.4,5.21l1,1.65a3.69,3.69,0,0,0,1.34,1.35H19.65v-1a4.77,4.77,0,0,0-4.09-4.71V22.59a4.5,4.5,0,0,1,3.91-4.8l23.13,0c.11,0,2.83.08,3.77,4.05l.05,3.24A4.86,4.86,0,0,0,44.44,25.89Zm-2.09,7.9v3H19.65v-3Zm-25.67-4v7H11.47v-7A1.79,1.79,0,0,1,13.26,28h1.63A1.79,1.79,0,0,1,16.68,29.81Zm33.85,9.93v4.47H11.47V39.74Z"/></g></svg>