<svg xmlns="http://www.w3.org/2000/svg" viewBox="0 0 62 62"><defs><style>.cls-1{fill:#00aef0;}</style></defs><g id="Layer_3" data-name="Layer 3"><circle class="cls-1" cx="20" cy="34.26" r="2"/><circle class="cls-1" cx="41.5" cy="34.76" r="2"/><path class="cls-1" d="M47.5,26V21.5a8.25,8.25,0,0,0-8.24-8.24H22.74A8.25,8.25,0,0,0,14.5,21.5V26a7.92,7.92,0,0,0-6,7.67v7.58a2,2,0,0,0,2,2h3.22v3.23a2.25,2.25,0,1,0,4.5,0V43.26h25.5v3.23a2.25,2.25,0,1,0,4.5,0V43.26H51.5a2,2,0,0,0,2-2V33.68A7.92,7.92,0,0,0,47.5,26Zm-4-4.51v3.76H33v-8h6.26A4.24,4.24,0,0,1,43.5,21.5Zm-25,0a4.24,4.24,0,0,1,4.24-4.24H29v8H18.5Zm31,17.76h-37V33.68a3.93,3.93,0,0,1,3.92-3.92H45.58a3.93,3.93,0,0,1,3.92,3.92Z"/></g></svg>