<svg xmlns="http://www.w3.org/2000/svg" viewBox="0 0 62 62"><defs><style>.cls-1{fill:#00aef0;}</style></defs><g id="Layer_3" data-name="Layer 3"><path class="cls-1" d="M52.54,27.82l-2.67-1.57V16.33a2,2,0,0,0-3.91,0v7.61L32.21,15.85a2,2,0,0,0-1.93,0L9.52,27.05a2,2,0,0,0,1.86,3.44l1.28-.69V43.72h-.92a2,2,0,0,0,0,3.9H50.79a1.95,1.95,0,1,0,0-3.9h-.92V30.78l.68.41a2,2,0,0,0,1,.27,2,2,0,0,0,1-3.64Zm-23.28,15V32.08A1.12,1.12,0,0,1,30.38,31h1.67a1.12,1.12,0,0,1,1.12,1.11V42.8a1.1,1.1,0,0,1-.49.92H29.75A1.1,1.1,0,0,1,29.26,42.8Zm16.7.92H36a4.06,4.06,0,0,0,.11-.92V32.08a4.05,4.05,0,0,0-4.05-4H30.38a4.05,4.05,0,0,0-4.05,4V42.8a4.06,4.06,0,0,0,.11.92H16.57v-16l14.6-7.9L46,28.48Z"/></g></svg>