<svg xmlns="http://www.w3.org/2000/svg" viewBox="0 0 62 62"><defs><style>.cls-1{fill:#00aef0;}.cls-2{fill:#fff;}</style></defs><g id="Layer_4" data-name="Layer 4"><path class="cls-1" d="M44.11,19.58H17a1,1,0,0,1,0-2H44.11a1,1,0,1,1,0,2Z"/><path class="cls-1" d="M43.89,25H17.18a1,1,0,1,1,0-2H43.89a1,1,0,1,1,0,2Z"/><circle class="cls-2" cx="31" cy="34.02" r="6.21"/><path class="cls-1" d="M31,41.05a7,7,0,1,1,7-7A7,7,0,0,1,31,41.05Zm0-12.41A5.38,5.38,0,1,0,36.38,34,5.38,5.38,0,0,0,31,28.64Z"/><path class="cls-1" d="M31,37.72a1,1,0,0,1-.7-.29l-2.7-2.71a1,1,0,1,1,1.4-1.4l1.8,1.8,2-3.37a1,1,0,0,1,1.36-.36,1,1,0,0,1,.36,1.36L31.9,37.23a1,1,0,0,1-.73.48Z"/><path class="cls-1" d="M49.18,45.1H12.82a1.33,1.33,0,0,1-1.32-1.33V13.63a1.33,1.33,0,0,1,1.32-1.33H49.18a1.33,1.33,0,0,1,1.32,1.33V43.77A1.33,1.33,0,0,1,49.18,45.1Zm-35-2.65H47.86V15H14.14Z"/><path class="cls-2" d="M31.23,40.23A6.2,6.2,0,0,1,27,38.59L26.9,48.7l4.33-4.23L35.1,48.7l-.31-9.6A6.15,6.15,0,0,1,31.23,40.23Z"/><path class="cls-1" d="M35.1,49.7a1,1,0,0,1-.74-.33l-3.17-3.48L27.6,49.41a1,1,0,0,1-1.09.21,1,1,0,0,1-.6-.93l.14-10.11a1,1,0,0,1,1.66-.72,5.18,5.18,0,0,0,6.51.43,1,1,0,0,1,1.56.78l.31,9.6a1,1,0,0,1-1,1ZM28,40.45l-.08,5.86,2.61-2.55a.93.93,0,0,1,.72-.28.94.94,0,0,1,.7.32L34,46.05l-.17-5.33A7.21,7.21,0,0,1,28,40.45Z"/></g></svg>