<svg class="icon" style="width:110px;" id="a44317a0-fe65-46a1-a5f9-b168eabd8078" data-name="Layer 1" xmlns="http://www.w3.org/2000/svg" viewBox="0 0 300 300"><defs><style>.fdf5a876-2cbe-45ed-ac02-62740c5b577d{fill:#fff;}</style></defs><title>Untitled-2</title><path class="fdf5a876-2cbe-45ed-ac02-62740c5b577d" d="M104.56,248.3a80,80,0,0,1-21-2.53A8.91,8.91,0,0,1,84,228.56c15.77-3.82,26.92-10.6,33.27-20.2-55.39-9-94.41-40.28-94.41-77C22.9,86.68,78.73,51.7,150,51.7s127.1,35,127.1,79.65c0,37.33-39.64,68.82-96.88,77.4-20.29,27.13-44.72,36-61.94,38.53A92.61,92.61,0,0,1,104.56,248.3ZM150,69.53c-59.23,0-109.27,28.31-109.27,61.82,0,29.54,38.93,55.71,90.56,60.87a8.92,8.92,0,0,1,7.66,11.4A54.29,54.29,0,0,1,123.87,228c14.1-3.86,30.25-12.91,44-32.66a8.92,8.92,0,0,1,6.15-3.73c49.37-6.43,85.2-31.77,85.2-60.26C259.27,97.84,209.23,69.53,150,69.53Z"></path><path class="fdf5a876-2cbe-45ed-ac02-62740c5b577d" d="M112.39,135.32a12.74,12.74,0,1,1-12.75-12.74A12.74,12.74,0,0,1,112.39,135.32Z"></path><path class="fdf5a876-2cbe-45ed-ac02-62740c5b577d" d="M213.09,135.32a12.74,12.74,0,1,1-12.75-12.74A12.74,12.74,0,0,1,213.09,135.32Z"></path><path class="fdf5a876-2cbe-45ed-ac02-62740c5b577d" d="M162.74,135.32A12.74,12.74,0,1,1,150,122.58,12.74,12.74,0,0,1,162.74,135.32Z"></path></svg>