<svg class="icon" style="width:110px;" id="eb59857f-1ee5-4084-becf-89f8a424ce79" data-name="Layer 1" xmlns="http://www.w3.org/2000/svg" viewBox="0 0 300 300"><defs><style>.e259c460-e92d-425b-8303-78f119167388{fill:#fff;}</style></defs><title>Untitled-2</title><path class="e259c460-e92d-425b-8303-78f119167388" d="M103.83,253.54H43.43a7,7,0,0,1-7-7V190.63a7,7,0,0,1,7-7H54.57c5.11-11.44,22.06-40.92,71.88-76.88a7,7,0,0,1,11,5.65v38.15a7,7,0,0,1-2.23,5.1c-.08.08-6.22,6-8.19,13.29l15.36-15.36a23.61,23.61,0,0,1,39.44,24.9,23.78,23.78,0,0,1-4.73,7.06l-.19.18-68.3,65.84A7,7,0,0,1,103.83,253.54ZM50.4,239.61H101l66.17-63.79a9.48,9.48,0,0,0,1.89-2.8,9.68,9.68,0,0,0-16.26-10.11l-.36.38-25.27,25.27a7,7,0,0,1-11-1.44c-9.91-17.18,2.06-33.44,7.33-39.34V126.36C74.38,164.69,66.11,192.23,66,192.52a7,7,0,0,1-6.7,5.07H50.4Zm121.73-58.88h0Z"></path><path class="e259c460-e92d-425b-8303-78f119167388" d="M139.44,102.71a6.59,6.59,0,0,1-1-.07,7,7,0,0,1-5.92-7.87l5-35c.75-5.41,1.25-9,4.67-11.52s7-1.88,10.52-1.32c.44.07,2.32.43,4.5.84,2.92.55,6.41,1.22,7.25,1.34a7,7,0,0,1-2,13.8c-.89-.13-4.71-.85-7.88-1.45l-3.19-.6-.12.84-5,35A7,7,0,0,1,139.44,102.71Z"></path><circle class="e259c460-e92d-425b-8303-78f119167388" cx="201.83" cy="126.78" r="17.62"></circle><path class="e259c460-e92d-425b-8303-78f119167388" d="M210.61,221.55a6.75,6.75,0,0,1-2.32-.4L173,208.67a7,7,0,0,1,4.65-13.14l28.71,10.17L247.67,89,186.29,67.28l-23,64.9a7,7,0,1,1-13.13-4.65l25.29-71.47a7,7,0,0,1,8.9-4.24L258.89,78.2a7,7,0,0,1,4.24,8.89L217.18,216.91A7,7,0,0,1,210.61,221.55Z"></path></svg>