<svg class="icon" style="width:110px;" id="b93ec5cc-471a-410f-a530-ba88c821084d" data-name="Layer 1" xmlns="http://www.w3.org/2000/svg" viewBox="0 0 300 300"><defs><style>.b7af0cdd-c1e6-4b16-8fda-fd4d9d434b36{fill:#fff;}</style></defs><title>Untitled-2</title><path class="b7af0cdd-c1e6-4b16-8fda-fd4d9d434b36" d="M166.75,111.36A16.75,16.75,0,1,1,150,94.62a16.74,16.74,0,0,1,16.75,16.74"></path><path class="b7af0cdd-c1e6-4b16-8fda-fd4d9d434b36" d="M150,223.75h0a9.86,9.86,0,0,1-8.37-4.63L95.4,145.54a7.17,7.17,0,0,1-.54-1A64.42,64.42,0,1,1,205.45,144a10.36,10.36,0,0,1-.63,1.18l-46.45,73.91a9.88,9.88,0,0,1-8.37,4.62m-37.29-87.82L150,195.28l37.44-59.58a9.81,9.81,0,0,1,.52-.95,44.64,44.64,0,1,0-75.75.28,9.84,9.84,0,0,1,.5.9"></path><path class="b7af0cdd-c1e6-4b16-8fda-fd4d9d434b36" d="M122.64,253.05a9,9,0,1,1,0-18h54.73a9,9,0,1,1,0,18Z"></path></svg>