<svg xmlns="http://www.w3.org/2000/svg" viewBox="0 0 62 62"><defs><style>.cls-1{fill:#00aef0;}</style></defs><g id="Layer_5" data-name="Layer 5"><path class="cls-1" d="M46,19.33H39.6v-3a3.1,3.1,0,0,0-3.11-3.1h-11a3.1,3.1,0,0,0-3.11,3.1v3H16A6.52,6.52,0,0,0,9.5,25.85v23h43v-23A6.52,6.52,0,0,0,46,19.33ZM42.67,39.81l-7.75,1.06-.5-3.66,8.25-1.13Zm0-6.83-9,1.23a2.73,2.73,0,0,0-2.33,3.06l.6,4.37A2.71,2.71,0,0,0,34.61,44L35,44l7.69-1.06v2.83H19.33V35.3h7.12a2.71,2.71,0,0,0,2.71-2.7v-5a2.71,2.71,0,0,0-2.71-2.7H19.33V22.4H42.67Zm-23.34-5h6.76v4.3H19.33Zm6.14-8.64,0-3h11l0,0,0,3Zm-12.9,6.56A3.46,3.46,0,0,1,16,22.4h.24V45.74H12.57ZM49.43,45.74H45.74V42.48a2.71,2.71,0,0,0,2.13-3l-.59-4.37A2.7,2.7,0,0,0,45.74,33V22.4H46a3.46,3.46,0,0,1,3.45,3.45Z"/></g></svg>