<svg xmlns="http://www.w3.org/2000/svg" viewBox="0 0 62 62"><defs><style>.cls-1{fill:#00aef0;}</style></defs><g id="Layer_4" data-name="Layer 4"><path class="cls-1" d="M50.84,46a1.59,1.59,0,0,0-2.19-.5,40.06,40.06,0,0,1-6.33,3L40.85,37.9h2.3a1.59,1.59,0,1,0,0-3.17H40.42l-1-7.08a2.46,2.46,0,0,0-.07-.29c-.06-.17-1.48-4.25-6.79-4.25a80.7,80.7,0,0,0-11.64,1.47L18.21,9.48a1.58,1.58,0,0,0-1.9-1.19,1.6,1.6,0,0,0-1.19,1.9l5.35,26.48A1.59,1.59,0,0,0,22,37.9h0l-3.71,8.94c-3-1.27-5-2.38-5.07-2.41a1.59,1.59,0,0,0-1.52,2.79c.49.26,12.08,6.53,20.83,6.53S50,48.45,50.33,48.23A1.6,1.6,0,0,0,50.84,46ZM21.65,27.67a79,79,0,0,1,10.93-1.39c2.65,0,3.55,1.55,3.74,2l.9,6.46H23.28ZM21.28,48,25.49,37.9H37.65l1.56,11.31a1.38,1.38,0,0,0,.12.34,25.17,25.17,0,0,1-6.75,1C29.05,50.58,24.85,49.37,21.28,48Z"/></g></svg>