<svg xmlns="http://www.w3.org/2000/svg" viewBox="0 0 62 62"><defs><style>.cls-1{fill:#00aef0;}</style></defs><g id="Layer_3" data-name="Layer 3"><path class="cls-1" d="M36.53,44.17a11.82,11.82,0,0,0,11.56-12,12.26,12.26,0,0,0-4.9-9.84c0-.19,0-.38,0-.57C43.2,15.26,38.61,10,33,10c-4.07,0-7.68,2.7-9.32,6.84h-.44c-5.11,0-9.28,3.73-9.28,8.3a7.68,7.68,0,0,0,1.62,4.68,12.52,12.52,0,0,0-.64,3.95,11.81,11.81,0,0,0,11.55,12,11.23,11.23,0,0,0,5.21-1.3v5.22H25.42a1.14,1.14,0,0,0,0,2.28H39.83a1.14,1.14,0,0,0,0-2.28h-5.9V43.86A10.82,10.82,0,0,0,36.53,44.17ZM26.44,42.54a8.56,8.56,0,0,1-8.29-8.78,9.22,9.22,0,0,1,.74-3.64,1.62,1.62,0,0,0-.34-1.78,4.57,4.57,0,0,1-1.38-3.21c0-2.78,2.7-5,6-5a7.69,7.69,0,0,1,1.27.11A1.63,1.63,0,0,0,26.32,19c1-3.46,3.62-5.79,6.63-5.79,3.86,0,7,3.8,7,8.47,0,.39,0,.79-.07,1.2a1.61,1.61,0,0,0,.77,1.58,8.93,8.93,0,0,1,4.18,7.63,8.57,8.57,0,0,1-8.3,8.79,7.94,7.94,0,0,1-2.6-.45V38.79l5.14-4.5a1.14,1.14,0,0,0-1.5-1.72l-3.64,3.19V28.22a1.14,1.14,0,0,0-2.28,0v3.43l-4-3.32a1.13,1.13,0,0,0-1.6.14,1.14,1.14,0,0,0,.14,1.61l5.45,4.54v6A8,8,0,0,1,26.44,42.54Z"/></g></svg>