<svg class="icon" style="width:110px;" id="b40855e1-f5aa-4936-a9e5-834f1c6aea63" data-name="Layer 1" xmlns="http://www.w3.org/2000/svg" viewBox="0 0 300 300"><defs><style>.e5a5cf53-b167-474d-af5b-f14dbfea0035{fill:#fff;}</style></defs><title>Untitled-2</title><path class="e5a5cf53-b167-474d-af5b-f14dbfea0035" d="M150,173.67a46.56,46.56,0,1,1,46.56-46.56A46.61,46.61,0,0,1,150,173.67m0-74.09a27.54,27.54,0,1,0,27.54,27.53A27.57,27.57,0,0,0,150,99.58"></path><path class="e5a5cf53-b167-474d-af5b-f14dbfea0035" d="M220.67,136.63H150a9.52,9.52,0,0,1,0-19h60.42a61.16,61.16,0,0,0-121.57,9.52,9.51,9.51,0,1,1-19,0,80.17,80.17,0,1,1,160.34,0,9.5,9.5,0,0,1-9.5,9.51"></path><path class="e5a5cf53-b167-474d-af5b-f14dbfea0035" d="M229.89,253.05H70.1a9.51,9.51,0,0,1-9.51-9.52V220.71a36.19,36.19,0,0,1,36.14-36.15H203.26a36.2,36.2,0,0,1,36.15,36.15v22.82a9.52,9.52,0,0,1-9.52,9.52M79.61,234H220.38V220.71a17.13,17.13,0,0,0-17.12-17.12H96.73a17.14,17.14,0,0,0-17.12,17.12Z"></path></svg>